<svg width="66" height="27" viewBox="0 0 66 27" fill="none" xmlns="http://www.w3.org/2000/svg">
<path d="M41.1084 2.40576H44.8734V15.3741H46.6513V2.40576H50.4163V0.732422H41.1084V2.40576Z" fill="#0D2DA2"/>
<path d="M38.9121 5.75214H37.2388V15.3738H38.9121V5.75214ZM41.8195 7.59281L42.7399 6.2123C42.4889 5.94736 42.21 5.77305 41.9032 5.68939C41.6104 5.59177 41.2896 5.54297 40.941 5.54297C40.4948 5.54297 40.0556 5.71727 39.6233 6.06589C39.191 6.4145 38.8354 6.88861 38.5565 7.48822C38.2916 8.07389 38.1591 8.7502 38.1591 9.51715H38.9121C38.9121 9.05698 38.9539 8.64562 39.0376 8.28306C39.1352 7.9205 39.3026 7.63464 39.5396 7.42547C39.7767 7.21631 40.1044 7.11172 40.5227 7.11172C40.8016 7.11172 41.0317 7.15356 41.2129 7.23722C41.3942 7.30695 41.5964 7.42547 41.8195 7.59281Z" fill="#0D2DA2"/>
<path d="M26.8222 10.9813H34.5614L33.9339 9.30794H27.4497L26.8222 10.9813ZM30.65 4.03693L33.16 9.93544L33.3273 10.3538L35.4608 15.3738H37.4479L30.65 0L23.8521 15.3738H25.8391L28.0145 10.2283L28.1818 9.85178L30.65 4.03693Z" fill="#0D2DA2"/>
<path d="M12.4593 5.48018L17.2284 14.0142L21.9974 5.48018L23.085 15.3738H24.863L23.085 0L17.2284 10.6048L11.3717 0L9.59375 15.3738H11.3717L12.4593 5.48018Z" fill="#0D2DA2"/>
<path d="M1.42234 10.939L0 11.9012C0.320723 12.5426 0.732085 13.1492 1.23409 13.7209C1.75003 14.2787 2.34267 14.7319 3.01201 15.0805C3.69529 15.4152 4.43435 15.5825 5.22918 15.5825C5.81485 15.5825 6.37263 15.4849 6.90252 15.2897C7.44635 15.0944 7.92744 14.8156 8.34577 14.453C8.77805 14.0904 9.11272 13.6512 9.34978 13.1352C9.60078 12.6193 9.72628 12.0406 9.72628 11.3992C9.72628 10.7298 9.60775 10.1581 9.37069 9.68399C9.13364 9.19593 8.82686 8.78457 8.45036 8.4499C8.0878 8.10129 7.69038 7.81543 7.2581 7.59232C6.82582 7.3692 6.41446 7.18793 6.02402 7.04848C5.1734 6.75565 4.4971 6.46281 3.99509 6.16998C3.50704 5.8632 3.15843 5.54248 2.94926 5.20781C2.74009 4.8592 2.63551 4.48269 2.63551 4.0783C2.63551 3.60419 2.81679 3.17889 3.17934 2.80238C3.5419 2.41194 4.12059 2.21672 4.91543 2.21672C5.48715 2.21672 5.96824 2.32827 6.35868 2.55138C6.76307 2.7745 7.10471 3.06036 7.3836 3.40897C7.66249 3.75758 7.89258 4.11317 8.07386 4.47572L9.60078 3.59722C9.36372 3.08127 9.03603 2.59322 8.61769 2.13305C8.19936 1.65894 7.69038 1.27546 7.09077 0.982629C6.5051 0.67585 5.81485 0.522461 5.02001 0.522461C4.19729 0.522461 3.4652 0.689795 2.82376 1.02446C2.18231 1.34519 1.68031 1.79141 1.31775 2.36313C0.955197 2.93486 0.773919 3.58328 0.773919 4.30839C0.773919 4.97772 0.899419 5.54248 1.15042 6.00264C1.41536 6.46281 1.75003 6.85326 2.15442 7.17398C2.55881 7.48076 2.98412 7.73873 3.43034 7.9479C3.87657 8.14312 4.28096 8.30348 4.64351 8.42898C5.20129 8.62421 5.72421 8.84732 6.21227 9.09832C6.71427 9.33538 7.11866 9.64913 7.42544 10.0396C7.73222 10.43 7.88561 10.9529 7.88561 11.6083C7.88561 12.2777 7.64855 12.8285 7.17444 13.2607C6.70032 13.693 6.07282 13.9092 5.29193 13.9092C4.70626 13.9092 4.18334 13.7837 3.72318 13.5327C3.26301 13.2817 2.84467 12.9331 2.46817 12.4868C2.10562 12.0406 1.757 11.5247 1.42234 10.939Z" fill="#0D2DA2"/>
<path d="M45.8667 26.7033C45.7622 26.7033 45.7389 26.6219 45.797 26.4593C45.8667 26.3082 45.9306 26.1687 45.9888 26.0409C46.0933 25.8318 46.1456 25.5064 46.1456 25.0648C46.1456 24.6813 46.0759 24.2688 45.9365 23.8272C45.797 23.3857 45.5239 22.9848 45.1172 22.6245C44.5594 22.1132 43.9319 21.7065 43.2347 21.4044C42.5375 21.1023 41.8054 20.8582 41.0385 20.6723C40.2831 20.4864 39.5336 20.3237 38.7899 20.1842C38.3367 20.8117 37.8487 21.3753 37.3257 21.875C36.8144 22.3747 36.2683 22.7582 35.6873 23.0254C35.3619 23.1765 35.0481 23.2869 34.746 23.3566C34.4439 23.438 34.1592 23.4786 33.8919 23.4786C33.2412 23.4786 32.7066 23.3043 32.2883 22.9557C31.8816 22.6187 31.6782 22.2178 31.6782 21.753C31.6782 21.3114 31.8758 20.8815 32.2709 20.4631C32.6776 20.0332 33.3458 19.6788 34.2754 19.3999C34.6472 19.2953 35.0598 19.2197 35.513 19.1733C35.9662 19.1152 36.4368 19.0861 36.9248 19.0861C37.227 19.0861 37.5233 19.0977 37.8138 19.121C38.1159 19.1326 38.3948 19.1675 38.6505 19.2256C38.9875 18.7143 39.3012 18.1855 39.5917 17.6394C39.8822 17.0816 40.1844 16.4773 40.4981 15.8266C39.5801 15.8498 38.7841 15.7162 38.1101 15.4257C37.4361 15.1236 36.9132 14.7227 36.5414 14.223C36.1811 13.7233 36.001 13.1888 36.001 12.6194C36.001 12.1545 36.1346 11.7013 36.4019 11.2598C36.6692 10.8066 37.0875 10.3999 37.6569 10.0396C38.2379 9.66778 38.9758 9.37727 39.8706 9.1681C39.9287 9.14486 39.981 9.13324 40.0275 9.13324C40.0856 9.13324 40.1379 9.13324 40.1844 9.13324C40.3587 9.13324 40.4458 9.1681 40.4458 9.23782C40.4458 9.35402 40.2599 9.43537 39.888 9.48185C39.2838 9.55157 38.7492 9.76655 38.2844 10.1268C37.8312 10.487 37.4768 10.917 37.2212 11.4166C36.9771 11.9163 36.8551 12.4218 36.8551 12.9331C36.8551 13.3747 36.9597 13.7872 37.1689 14.1707C37.378 14.5542 37.7092 14.8679 38.1624 15.1119C38.6156 15.3443 39.2024 15.4605 39.9229 15.4605C40.1785 15.4605 40.4516 15.4431 40.7421 15.4083C40.7886 15.3153 40.8642 15.1294 40.9687 14.8505C41.0849 14.56 41.2128 14.2346 41.3522 13.8744C41.4917 13.5141 41.6253 13.1655 41.7531 12.8285C41.8926 12.4915 42.003 12.2126 42.0843 11.9919C42.1773 11.7594 42.2237 11.6432 42.2237 11.6432C42.7583 10.3069 43.3044 9.26106 43.8622 8.50574C44.4316 7.73879 44.9778 7.19844 45.5007 6.88469C46.0352 6.57094 46.5117 6.41406 46.93 6.41406C47.3832 6.41406 47.7551 6.5477 48.0456 6.81497C48.3477 7.08224 48.5104 7.38437 48.5336 7.72136C48.5452 7.82594 48.5511 7.90147 48.5511 7.94796C48.5511 7.99444 48.5511 8.05254 48.5511 8.12226C48.5511 8.80787 48.4116 9.49347 48.1327 10.1791C47.8654 10.8647 47.4878 11.5154 46.9997 12.1313C46.5233 12.7472 45.9713 13.305 45.3438 13.8046C44.7279 14.3043 44.0656 14.7227 43.3567 15.0596C42.6595 15.3966 41.9507 15.629 41.2302 15.7569C41.0559 16.1055 40.899 16.4192 40.7596 16.6981C40.6317 16.9654 40.4865 17.2559 40.3238 17.5696C40.1611 17.8834 39.9461 18.2843 39.6789 18.7724C39.5975 18.9234 39.5336 19.0338 39.4871 19.1035C39.4523 19.1616 39.3942 19.2546 39.3128 19.3824C39.8938 19.5219 40.5272 19.7194 41.2128 19.9751C41.8984 20.2191 42.5724 20.5154 43.2347 20.864C43.9087 21.201 44.5071 21.5729 45.0301 21.9796C45.6808 22.4793 46.1398 23.0429 46.4071 23.6704C46.686 24.2979 46.8254 24.8498 46.8254 25.3263C46.8254 25.6633 46.7731 25.9189 46.6685 26.0932C46.5175 26.3489 46.3664 26.5116 46.2153 26.5813C46.0643 26.6626 45.9481 26.7033 45.8667 26.7033ZM41.4742 15.2862C42.2644 15.1119 43.0372 14.7982 43.7925 14.345C44.5478 13.8802 45.2276 13.3224 45.8319 12.6717C46.4361 12.0093 46.9184 11.2946 47.2786 10.5277C47.6388 9.74912 47.819 8.95893 47.819 8.15712C47.819 7.95958 47.7667 7.79689 47.6621 7.66907C47.5575 7.54124 47.4064 7.47733 47.2089 7.47733C46.9416 7.47733 46.5988 7.62839 46.1805 7.93053C45.7622 8.22104 45.2857 8.7149 44.7512 9.41213C44.2166 10.0977 43.6414 11.0448 43.0255 12.2533C43.0255 12.2533 42.9442 12.4044 42.7815 12.7065C42.6305 13.0086 42.4329 13.3921 42.1889 13.8569C41.9565 14.3101 41.7183 14.7866 41.4742 15.2862ZM33.6479 22.9731C33.9035 22.9731 34.1766 22.9383 34.4671 22.8686C34.7693 22.7988 35.083 22.6884 35.4084 22.5374C36.3845 22.0609 37.2851 21.2359 38.1101 20.0622C37.8428 20.0041 37.564 19.9635 37.2734 19.9402C36.9829 19.9054 36.6866 19.8879 36.3845 19.8879C36.0707 19.8879 35.7454 19.9054 35.4084 19.9402C35.083 19.9751 34.7634 20.039 34.4497 20.132C33.6711 20.3411 33.0727 20.6084 32.6543 20.9338C32.2476 21.2591 32.0443 21.5903 32.0443 21.9273C32.0443 22.2178 32.1895 22.4618 32.48 22.6594C32.7705 22.8686 33.1598 22.9731 33.6479 22.9731Z" fill="#FF7E00"/>
<path d="M48.9837 21.4915C48.8559 21.5032 48.7106 21.4741 48.5479 21.4044C48.3852 21.3347 48.24 21.2068 48.1122 21.0209C47.9959 20.835 47.9378 20.5735 47.9378 20.2365C47.9378 19.9576 47.9901 19.6207 48.0947 19.2256C47.9553 19.4463 47.7752 19.7194 47.5544 20.0448C47.3336 20.3585 47.0954 20.6374 46.8397 20.8815C46.6189 21.0906 46.4098 21.2417 46.2122 21.3347C46.0147 21.4276 45.8346 21.4741 45.6719 21.4741C45.3697 21.4741 45.1257 21.3405 44.9398 21.0732C44.7539 20.7943 44.6609 20.4341 44.6609 19.9925C44.6609 19.5277 44.7771 18.999 45.0095 18.4063C45.2419 17.8137 45.6196 17.1978 46.1425 16.5587C46.4795 16.152 46.8862 15.8266 47.3626 15.5826C47.8507 15.3269 48.3271 15.1991 48.7919 15.1991C49.0592 15.1991 49.3149 15.2456 49.5589 15.3385C49.8029 15.4199 50.0179 15.5593 50.2038 15.7569C50.2852 15.8382 50.3258 15.9312 50.3258 16.0358C50.3258 16.1055 50.2968 16.1636 50.2387 16.2101C50.1806 16.2565 50.1051 16.2682 50.0121 16.2449C49.8843 15.8382 49.6112 15.6349 49.1928 15.6349C48.9953 15.6349 48.7687 15.6988 48.5131 15.8266C48.118 16.0358 47.7054 16.3786 47.2755 16.855C46.8571 17.3314 46.4911 17.8253 46.1774 18.3366C46.1309 18.4063 46.0553 18.54 45.9508 18.7375C45.8578 18.935 45.7648 19.1558 45.6719 19.3999C45.5789 19.6439 45.515 19.8821 45.4801 20.1145C45.4685 20.1842 45.4627 20.2365 45.4627 20.2714C45.4627 20.2946 45.4627 20.3353 45.4627 20.3934C45.4627 20.7769 45.608 20.9686 45.8985 20.9686C46.2471 20.9686 46.6422 20.713 47.0837 20.2017C47.3859 19.8298 47.659 19.4405 47.903 19.0338C48.147 18.6271 48.3969 18.1913 48.6525 17.7265C48.8268 17.4128 48.9895 17.1513 49.1406 16.9421C49.2916 16.733 49.5066 16.6284 49.7855 16.6284C49.9133 16.6284 50.0411 16.6458 50.169 16.6807C50.2968 16.7156 50.4304 16.7214 50.5699 16.6981C50.4769 16.7911 50.3491 16.9654 50.1864 17.221C50.0353 17.4767 49.8726 17.7672 49.6983 18.0926C49.524 18.4179 49.3672 18.7491 49.2277 19.0861C49.0883 19.4231 48.9895 19.7136 48.9314 19.9576C48.9198 20.0274 48.9023 20.1261 48.8791 20.254C48.8675 20.3818 48.8617 20.4748 48.8617 20.5329C48.8617 20.8582 48.9546 21.0209 49.1406 21.0209C49.3265 21.0209 49.524 20.9105 49.7332 20.6897C49.954 20.4689 50.169 20.1959 50.3781 19.8705C50.5873 19.5451 50.779 19.2197 50.9533 18.8944C51.1276 18.5574 51.2671 18.2843 51.3717 18.0751C51.4182 17.9589 51.4879 17.9008 51.5808 17.9008C51.6389 17.9008 51.668 17.9415 51.668 18.0228C51.668 18.0577 51.6506 18.1216 51.6157 18.2146C51.4763 18.5051 51.3078 18.8363 51.1102 19.2081C50.9127 19.5684 50.6977 19.9228 50.4653 20.2714C50.2329 20.6084 49.9888 20.8931 49.7332 21.1255C49.4892 21.3463 49.2393 21.4683 48.9837 21.4915Z" fill="#FF7E00"/>
<path d="M55.1988 21.4392C54.885 21.4392 54.6236 21.2824 54.4144 20.9686C54.3563 20.8757 54.304 20.7536 54.2575 20.6026C54.211 20.4515 54.1878 20.283 54.1878 20.0971C54.1878 19.9925 54.1936 19.8879 54.2052 19.7833C54.2169 19.6671 54.2401 19.5509 54.275 19.4347C54.1123 19.6904 53.9205 19.9751 53.6997 20.2888C53.4906 20.591 53.2466 20.8582 52.9677 21.0906C52.7004 21.3114 52.3983 21.4218 52.0613 21.4218C51.9451 21.4218 51.8231 21.4044 51.6952 21.3695C51.3815 21.2766 51.1549 21.1139 51.0154 20.8815C50.8876 20.6491 50.8237 20.3702 50.8237 20.0448C50.8237 19.6846 50.8934 19.2895 51.0329 18.8595C51.1839 18.4296 51.3699 18.0112 51.5906 17.6045C51.8231 17.1978 52.0613 16.8492 52.3053 16.5587C52.6539 16.152 53.0548 15.8266 53.508 15.5826C53.9612 15.3385 54.4202 15.2165 54.885 15.2165C55.3034 15.2165 55.6985 15.3269 56.0703 15.5477C56.2446 15.2223 56.4305 14.8621 56.6281 14.467C56.8256 14.0603 57.0232 13.6594 57.2207 13.2643C57.4183 12.8692 57.5926 12.509 57.7437 12.1836C57.8947 11.8466 58.0109 11.591 58.0923 11.4166C58.2666 11.0099 58.4293 10.7543 58.5803 10.6497C58.743 10.5335 58.9347 10.4754 59.1555 10.4754C59.2834 10.4754 59.4228 10.4928 59.5739 10.5277C59.7365 10.5509 59.8934 10.5567 60.0445 10.5451C59.9748 10.6148 59.8295 10.8182 59.6087 11.1552C59.3996 11.4806 59.1497 11.8989 58.8592 12.4102C58.5687 12.9215 58.2549 13.4851 57.918 14.101C57.5926 14.7052 57.2672 15.3211 56.9418 15.9486C56.6281 16.5645 56.3318 17.1513 56.0529 17.7091C55.7856 18.2553 55.5706 18.7259 55.4079 19.121C55.3615 19.2139 55.2917 19.4057 55.1988 19.6962C55.1174 19.9751 55.0768 20.2191 55.0768 20.4283C55.0768 20.5793 55.1116 20.713 55.1814 20.8292C55.2511 20.9338 55.3673 20.986 55.53 20.986C55.7508 20.986 55.9715 20.8757 56.1923 20.6549C56.4247 20.4225 56.6455 20.1436 56.8547 19.8182C57.0639 19.4812 57.2498 19.1558 57.4125 18.8421C57.5752 18.5167 57.6972 18.2611 57.7785 18.0751C57.8366 17.9473 57.9063 17.8834 57.9877 17.8834C58.0574 17.8834 58.0923 17.9357 58.0923 18.0403C58.0923 18.0519 58.0923 18.0751 58.0923 18.11C58.0923 18.1332 58.0806 18.1623 58.0574 18.1972C57.9528 18.4412 57.8076 18.7433 57.6216 19.1035C57.4473 19.4638 57.2382 19.824 56.9941 20.1842C56.7501 20.5445 56.477 20.8466 56.1749 21.0906C55.8728 21.323 55.5474 21.4392 55.1988 21.4392ZM52.1833 20.9163C52.346 20.9163 52.5493 20.8292 52.7934 20.6549C53.0374 20.4689 53.2988 20.1784 53.5777 19.7833C53.9031 19.3185 54.275 18.7375 54.6933 18.0403C55.1116 17.3431 55.5242 16.6052 55.9309 15.8266C55.7798 15.6871 55.6055 15.6174 55.4079 15.6174C55.0826 15.6174 54.7165 15.7685 54.3098 16.0706C53.9147 16.3727 53.5254 16.7562 53.142 17.221C52.7701 17.6859 52.4564 18.1565 52.2007 18.6329C52.0264 18.9583 51.8986 19.2546 51.8172 19.5219C51.7475 19.7891 51.7127 20.0216 51.7127 20.2191C51.7127 20.6839 51.8695 20.9163 52.1833 20.9163Z" fill="#FF7E00"/>
<path d="M55.4278 26.9996C54.8236 26.9996 54.3936 26.8776 54.138 26.6336C53.8823 26.4012 53.7545 26.1223 53.7545 25.7969C53.7545 25.6226 53.7777 25.4715 53.8242 25.3437C53.8707 25.2159 53.9404 25.0532 54.0334 24.8556C54.1961 24.5187 54.4227 24.2281 54.7132 23.9841C55.0037 23.7401 55.3174 23.5425 55.6544 23.3915C56.2587 23.1126 56.9443 22.886 57.7112 22.7117C58.4898 22.5374 59.2335 22.3456 59.9424 22.1365C60.1631 21.753 60.3665 21.3172 60.5524 20.8292C60.7384 20.3295 60.9069 19.8472 61.0579 19.3824C61.209 18.906 61.331 18.5167 61.424 18.2146C61.2845 18.4702 61.1044 18.784 60.8836 19.1558C60.6744 19.5161 60.4362 19.8705 60.169 20.2191C59.9017 20.5677 59.6112 20.8582 59.2974 21.0906C58.9953 21.323 58.6757 21.4392 58.3387 21.4392C58.2109 21.4392 58.054 21.4102 57.8681 21.3521C57.6938 21.294 57.5369 21.1894 57.3975 21.0383C57.2697 20.8757 57.2058 20.6374 57.2058 20.3237C57.2058 20.0216 57.2755 19.731 57.4149 19.4522C57.566 19.1616 57.7054 18.8828 57.8333 18.6155C57.7984 18.6155 57.7577 18.6039 57.7112 18.5806C57.6764 18.5574 57.6589 18.5225 57.6589 18.476C57.6589 18.4296 57.6706 18.3831 57.6938 18.3366C57.7403 18.2436 57.7926 18.1449 57.8507 18.0403C57.9088 17.9357 57.9611 17.8253 58.0076 17.7091C58.1819 17.3489 58.3562 17.0061 58.5305 16.6807C58.7048 16.3437 58.8559 16.0474 58.9837 15.7917C59.1115 15.5361 59.3323 15.4083 59.646 15.4083H60.7267C60.6454 15.478 60.5408 15.5593 60.413 15.6523C60.2968 15.7336 60.1864 15.8615 60.0818 16.0358C59.7681 16.5703 59.495 17.0874 59.2626 17.5871C59.0302 18.0751 58.7803 18.5981 58.513 19.1558C58.3852 19.4231 58.2923 19.6671 58.2342 19.8879C58.1761 20.1087 58.147 20.3004 58.147 20.4631C58.147 20.8466 58.2748 21.0383 58.5305 21.0383C58.8094 21.0383 59.1464 20.8117 59.5415 20.3585C59.8668 19.9751 60.1922 19.5219 60.5176 18.999C60.8546 18.4644 61.1741 17.9183 61.4763 17.3605C61.79 16.7911 62.0631 16.2682 62.2955 15.7917C62.4233 15.5361 62.6499 15.4083 62.9753 15.4083H63.934C63.597 15.6407 63.3355 15.9428 63.1496 16.3146C62.9753 16.6865 62.7777 17.1629 62.5569 17.744C62.3129 18.3831 62.0805 19.0454 61.8597 19.731C61.6506 20.405 61.4123 21.0848 61.1451 21.7704C61.5285 21.6426 61.9585 21.4451 62.4349 21.1778C62.923 20.9105 63.3355 20.527 63.6725 20.0274C63.9398 19.6323 64.1664 19.2546 64.3523 18.8944C64.5498 18.5225 64.6893 18.2553 64.7706 18.0926C64.8171 17.9764 64.881 17.9183 64.9624 17.9183C65.0437 17.9183 65.0844 17.9706 65.0844 18.0751C65.0844 18.1332 65.067 18.1972 65.0321 18.2669C64.73 18.8711 64.4569 19.3824 64.2129 19.8008C63.9804 20.2075 63.719 20.5619 63.4285 20.864C63.1496 21.1545 62.8068 21.4102 62.4001 21.631C61.9934 21.8634 61.4763 22.0958 60.8487 22.3282C60.5699 22.8279 60.2503 23.345 59.8901 23.8795C59.5415 24.4257 59.1406 24.9312 58.6874 25.396C58.2458 25.8724 57.7519 26.2559 57.2058 26.5464C56.6712 26.8485 56.0786 26.9996 55.4278 26.9996ZM55.0095 26.651C55.393 26.651 55.7881 26.5348 56.1948 26.3024C56.6015 26.07 56.9966 25.7737 57.3801 25.4134C57.7635 25.0648 58.1121 24.7046 58.4259 24.3327C58.7513 23.9725 59.0127 23.6529 59.2103 23.374C59.2684 23.2927 59.3323 23.1881 59.402 23.0603C59.4717 22.9325 59.5415 22.8105 59.6112 22.6942C59.0418 22.8453 58.4143 23.008 57.7287 23.1823C57.0547 23.3682 56.4679 23.5716 55.9682 23.7924C55.4104 24.0248 54.9746 24.356 54.6609 24.7859C54.3355 25.2159 54.1728 25.5993 54.1728 25.9363C54.1728 26.1455 54.2425 26.314 54.382 26.4418C54.5098 26.5813 54.719 26.651 55.0095 26.651Z" fill="#FF7E00"/>
<path d="M45.0478 14.0487L44.8735 14.1621V13.5955V13.5607L45.1524 13.2818L45.3965 13.1075L45.6753 12.8286L45.9194 12.5148L46.2331 12.2011L46.4423 11.9222L46.6515 11.6348V12.5497L46.5469 12.6891L46.2331 13.0378L45.8496 13.3864L45.4313 13.735L45.1873 13.9442L45.0478 14.0487Z" fill="#0D2DA2"/>
</svg>
